<mxfile host="app.diagrams.net" modified="2020-10-29T16:46:21.771Z" agent="5.0 (Windows NT 10.0; Win64; x64) AppleWebKit/537.36 (KHTML, like Gecko) Chrome/86.0.4240.111 Safari/537.36" etag="JKz2dYZKWKIbnQ35xNiY" version="13.8.7" type="github">
  <diagram id="ZGXIjjbLopmjVRuJoMsG" name="Page-1">
    <mxGraphModel dx="1016" dy="469" grid="1" gridSize="10" guides="1" tooltips="1" connect="1" arrows="1" fold="1" page="1" pageScale="1" pageWidth="850" pageHeight="1100" math="0" shadow="0">
      <root>
        <mxCell id="0" />
        <mxCell id="1" parent="0" />
        <mxCell id="6Lx6u-xeBbeA7CoDOiHQ-8" style="edgeStyle=orthogonalEdgeStyle;rounded=0;orthogonalLoop=1;jettySize=auto;html=1;entryX=0.531;entryY=0.005;entryDx=0;entryDy=0;entryPerimeter=0;" edge="1" parent="1" source="6Lx6u-xeBbeA7CoDOiHQ-1" target="6Lx6u-xeBbeA7CoDOiHQ-5">
          <mxGeometry relative="1" as="geometry">
            <Array as="points">
              <mxPoint x="230" y="40" />
              <mxPoint x="455" y="40" />
            </Array>
          </mxGeometry>
        </mxCell>
        <mxCell id="6Lx6u-xeBbeA7CoDOiHQ-1" value="User" style="html=1;dashed=0;whitespace=wrap;" vertex="1" parent="1">
          <mxGeometry x="180" y="115" width="100" height="50" as="geometry" />
        </mxCell>
        <mxCell id="6Lx6u-xeBbeA7CoDOiHQ-2" value="1" style="html=1;dashed=0;whitespace=wrap;shape=mxgraph.dfd.dataStoreID;align=left;spacingLeft=3;points=[[0,0],[0.5,0],[1,0],[0,0.5],[1,0.5],[0,1],[0.5,1],[1,1]];" vertex="1" parent="1">
          <mxGeometry x="640" y="110" width="100" height="30" as="geometry" />
        </mxCell>
        <mxCell id="6Lx6u-xeBbeA7CoDOiHQ-30" style="edgeStyle=orthogonalEdgeStyle;rounded=0;orthogonalLoop=1;jettySize=auto;html=1;entryX=0.873;entryY=0.825;entryDx=0;entryDy=0;entryPerimeter=0;" edge="1" parent="1" source="6Lx6u-xeBbeA7CoDOiHQ-4" target="6Lx6u-xeBbeA7CoDOiHQ-5">
          <mxGeometry relative="1" as="geometry">
            <Array as="points">
              <mxPoint x="680" y="192" />
            </Array>
          </mxGeometry>
        </mxCell>
        <mxCell id="6Lx6u-xeBbeA7CoDOiHQ-32" value="Ответ" style="edgeLabel;html=1;align=center;verticalAlign=middle;resizable=0;points=[];" vertex="1" connectable="0" parent="6Lx6u-xeBbeA7CoDOiHQ-30">
          <mxGeometry x="0.3964" y="-2" relative="1" as="geometry">
            <mxPoint as="offset" />
          </mxGeometry>
        </mxCell>
        <mxCell id="6Lx6u-xeBbeA7CoDOiHQ-4" value="Users" style="text;html=1;align=center;verticalAlign=middle;resizable=0;points=[];autosize=1;" vertex="1" parent="1">
          <mxGeometry x="680" y="115" width="50" height="20" as="geometry" />
        </mxCell>
        <mxCell id="6Lx6u-xeBbeA7CoDOiHQ-7" style="edgeStyle=orthogonalEdgeStyle;rounded=0;orthogonalLoop=1;jettySize=auto;html=1;entryX=0;entryY=0.5;entryDx=0;entryDy=0;" edge="1" parent="1" source="6Lx6u-xeBbeA7CoDOiHQ-5" target="6Lx6u-xeBbeA7CoDOiHQ-2">
          <mxGeometry relative="1" as="geometry" />
        </mxCell>
        <mxCell id="6Lx6u-xeBbeA7CoDOiHQ-33" value="Запрос на совпадение пользовательских данных" style="edgeLabel;html=1;align=center;verticalAlign=middle;resizable=0;points=[];" vertex="1" connectable="0" parent="6Lx6u-xeBbeA7CoDOiHQ-7">
          <mxGeometry x="-0.296" y="3" relative="1" as="geometry">
            <mxPoint x="75.71" y="-37" as="offset" />
          </mxGeometry>
        </mxCell>
        <mxCell id="6Lx6u-xeBbeA7CoDOiHQ-31" style="edgeStyle=orthogonalEdgeStyle;rounded=0;orthogonalLoop=1;jettySize=auto;html=1;entryX=1;entryY=0.5;entryDx=0;entryDy=0;" edge="1" parent="1" source="6Lx6u-xeBbeA7CoDOiHQ-5" target="6Lx6u-xeBbeA7CoDOiHQ-1">
          <mxGeometry relative="1" as="geometry" />
        </mxCell>
        <mxCell id="6Lx6u-xeBbeA7CoDOiHQ-34" value="Ответ" style="edgeLabel;html=1;align=center;verticalAlign=middle;resizable=0;points=[];" vertex="1" connectable="0" parent="6Lx6u-xeBbeA7CoDOiHQ-31">
          <mxGeometry x="0.2921" y="-3" relative="1" as="geometry">
            <mxPoint as="offset" />
          </mxGeometry>
        </mxCell>
        <mxCell id="6Lx6u-xeBbeA7CoDOiHQ-5" value="Авторизация" style="shape=ellipse;html=1;dashed=0;whitespace=wrap;aspect=fixed;perimeter=ellipsePerimeter;" vertex="1" parent="1">
          <mxGeometry x="370" y="60" width="160" height="160" as="geometry" />
        </mxCell>
        <mxCell id="6Lx6u-xeBbeA7CoDOiHQ-11" value="Авторизация" style="text;html=1;align=center;verticalAlign=middle;resizable=0;points=[];autosize=1;" vertex="1" parent="1">
          <mxGeometry x="255" y="10" width="90" height="20" as="geometry" />
        </mxCell>
      </root>
    </mxGraphModel>
  </diagram>
</mxfile>
